<mxfile host="app.diagrams.net" agent="Mozilla/5.0 (Windows NT 10.0; Win64; x64) AppleWebKit/537.36 (KHTML, like Gecko) Chrome/132.0.0.0 Safari/537.36" version="26.0.11">
  <diagram name="Page-1" id="RbNFmXuXFXfBO2YPaHSl">
    <mxGraphModel dx="2463" dy="1873" grid="1" gridSize="10" guides="1" tooltips="1" connect="1" arrows="1" fold="1" page="1" pageScale="1" pageWidth="850" pageHeight="1100" math="0" shadow="0">
      <root>
        <mxCell id="0" />
        <mxCell id="1" parent="0" />
        <mxCell id="kHndqxakwdEVO61bLLsD-2" value="" style="whiteSpace=wrap;html=1;fillColor=none;" parent="1" vertex="1">
          <mxGeometry x="-20" y="-50" width="850" height="1410" as="geometry" />
        </mxCell>
        <mxCell id="UNos-CsjaKPpaQYKpEou-1" value="&lt;p align=&quot;center&quot; class=&quot;MsoNormal&quot;&gt;Edit Profile&lt;/p&gt;" style="rounded=0;whiteSpace=wrap;html=1;" parent="1" vertex="1">
          <mxGeometry x="360" y="70" width="120" height="60" as="geometry" />
        </mxCell>
        <mxCell id="UNos-CsjaKPpaQYKpEou-9" value="" style="edgeStyle=orthogonalEdgeStyle;rounded=0;orthogonalLoop=1;jettySize=auto;html=1;entryX=0;entryY=0.5;entryDx=0;entryDy=0;" parent="1" source="UNos-CsjaKPpaQYKpEou-2" target="UNos-CsjaKPpaQYKpEou-10" edge="1">
          <mxGeometry relative="1" as="geometry" />
        </mxCell>
        <mxCell id="UNos-CsjaKPpaQYKpEou-25" style="edgeStyle=orthogonalEdgeStyle;rounded=0;orthogonalLoop=1;jettySize=auto;html=1;entryX=0;entryY=0.5;entryDx=0;entryDy=0;" parent="1" source="UNos-CsjaKPpaQYKpEou-2" target="UNos-CsjaKPpaQYKpEou-13" edge="1">
          <mxGeometry relative="1" as="geometry" />
        </mxCell>
        <mxCell id="UNos-CsjaKPpaQYKpEou-26" style="edgeStyle=orthogonalEdgeStyle;rounded=0;orthogonalLoop=1;jettySize=auto;html=1;entryX=0;entryY=0.5;entryDx=0;entryDy=0;" parent="1" source="UNos-CsjaKPpaQYKpEou-2" target="UNos-CsjaKPpaQYKpEou-12" edge="1">
          <mxGeometry relative="1" as="geometry" />
        </mxCell>
        <mxCell id="UNos-CsjaKPpaQYKpEou-27" style="edgeStyle=orthogonalEdgeStyle;rounded=0;orthogonalLoop=1;jettySize=auto;html=1;entryX=0;entryY=0.5;entryDx=0;entryDy=0;" parent="1" source="UNos-CsjaKPpaQYKpEou-2" target="UNos-CsjaKPpaQYKpEou-11" edge="1">
          <mxGeometry relative="1" as="geometry" />
        </mxCell>
        <mxCell id="UNos-CsjaKPpaQYKpEou-31" style="edgeStyle=orthogonalEdgeStyle;rounded=0;orthogonalLoop=1;jettySize=auto;html=1;entryX=0;entryY=0.5;entryDx=0;entryDy=0;" parent="1" source="UNos-CsjaKPpaQYKpEou-2" target="UNos-CsjaKPpaQYKpEou-14" edge="1">
          <mxGeometry relative="1" as="geometry" />
        </mxCell>
        <mxCell id="UNos-CsjaKPpaQYKpEou-35" style="edgeStyle=orthogonalEdgeStyle;rounded=0;orthogonalLoop=1;jettySize=auto;html=1;entryX=0.5;entryY=0;entryDx=0;entryDy=0;" parent="1" source="UNos-CsjaKPpaQYKpEou-2" target="UNos-CsjaKPpaQYKpEou-17" edge="1">
          <mxGeometry relative="1" as="geometry">
            <Array as="points">
              <mxPoint x="282" y="249" />
              <mxPoint x="282" y="690" />
              <mxPoint x="420" y="690" />
            </Array>
          </mxGeometry>
        </mxCell>
        <mxCell id="UNos-CsjaKPpaQYKpEou-36" style="edgeStyle=orthogonalEdgeStyle;rounded=0;orthogonalLoop=1;jettySize=auto;html=1;entryX=0;entryY=0.5;entryDx=0;entryDy=0;" parent="1" source="UNos-CsjaKPpaQYKpEou-2" target="UNos-CsjaKPpaQYKpEou-15" edge="1">
          <mxGeometry relative="1" as="geometry" />
        </mxCell>
        <mxCell id="UNos-CsjaKPpaQYKpEou-2" value="&lt;font style=&quot;font-size: 20px;&quot;&gt;Staff&lt;/font&gt;" style="sketch=0;outlineConnect=0;fontColor=#232F3E;gradientColor=none;fillColor=#232F3D;strokeColor=none;dashed=0;verticalLabelPosition=bottom;verticalAlign=top;align=center;html=1;fontSize=12;fontStyle=0;aspect=fixed;pointerEvents=1;shape=mxgraph.aws4.user;" parent="1" vertex="1">
          <mxGeometry x="130" y="210" width="78" height="78" as="geometry" />
        </mxCell>
        <mxCell id="UNos-CsjaKPpaQYKpEou-32" style="edgeStyle=orthogonalEdgeStyle;rounded=0;orthogonalLoop=1;jettySize=auto;html=1;entryX=0;entryY=0.5;entryDx=0;entryDy=0;strokeColor=#3200FF;" parent="1" source="UNos-CsjaKPpaQYKpEou-3" target="UNos-CsjaKPpaQYKpEou-17" edge="1">
          <mxGeometry relative="1" as="geometry" />
        </mxCell>
        <mxCell id="UNos-CsjaKPpaQYKpEou-37" style="edgeStyle=orthogonalEdgeStyle;rounded=0;orthogonalLoop=1;jettySize=auto;html=1;entryX=0;entryY=0.5;entryDx=0;entryDy=0;strokeColor=#3200FF;" parent="1" source="UNos-CsjaKPpaQYKpEou-3" target="UNos-CsjaKPpaQYKpEou-18" edge="1">
          <mxGeometry relative="1" as="geometry" />
        </mxCell>
        <mxCell id="UNos-CsjaKPpaQYKpEou-3" value="" style="sketch=0;outlineConnect=0;fontColor=#232F3E;gradientColor=none;fillColor=#3200FF;strokeColor=#3200FF;dashed=0;verticalLabelPosition=bottom;verticalAlign=top;align=center;html=1;fontSize=12;fontStyle=0;aspect=fixed;pointerEvents=1;shape=mxgraph.aws4.authenticated_user;" parent="1" vertex="1">
          <mxGeometry x="135" y="832" width="68" height="68" as="geometry" />
        </mxCell>
        <mxCell id="UNos-CsjaKPpaQYKpEou-28" style="edgeStyle=orthogonalEdgeStyle;rounded=0;orthogonalLoop=1;jettySize=auto;html=1;entryX=1;entryY=0.5;entryDx=0;entryDy=0;strokeColor=#006633;" parent="1" source="UNos-CsjaKPpaQYKpEou-4" target="UNos-CsjaKPpaQYKpEou-12" edge="1">
          <mxGeometry relative="1" as="geometry" />
        </mxCell>
        <mxCell id="UNos-CsjaKPpaQYKpEou-29" style="edgeStyle=orthogonalEdgeStyle;rounded=0;orthogonalLoop=1;jettySize=auto;html=1;entryX=1;entryY=0.5;entryDx=0;entryDy=0;strokeColor=#006633;" parent="1" source="UNos-CsjaKPpaQYKpEou-4" target="UNos-CsjaKPpaQYKpEou-11" edge="1">
          <mxGeometry relative="1" as="geometry" />
        </mxCell>
        <mxCell id="UNos-CsjaKPpaQYKpEou-30" style="edgeStyle=orthogonalEdgeStyle;rounded=0;orthogonalLoop=1;jettySize=auto;html=1;entryX=1;entryY=0.5;entryDx=0;entryDy=0;strokeColor=#006633;" parent="1" source="UNos-CsjaKPpaQYKpEou-4" target="UNos-CsjaKPpaQYKpEou-1" edge="1">
          <mxGeometry relative="1" as="geometry" />
        </mxCell>
        <mxCell id="UNos-CsjaKPpaQYKpEou-34" style="edgeStyle=orthogonalEdgeStyle;rounded=0;orthogonalLoop=1;jettySize=auto;html=1;entryX=1;entryY=0.5;entryDx=0;entryDy=0;strokeColor=#006633;" parent="1" source="UNos-CsjaKPpaQYKpEou-4" target="UNos-CsjaKPpaQYKpEou-17" edge="1">
          <mxGeometry relative="1" as="geometry" />
        </mxCell>
        <mxCell id="UNos-CsjaKPpaQYKpEou-4" value="" style="verticalLabelPosition=bottom;html=1;verticalAlign=top;align=center;strokeColor=none;fillColor=#006633;shape=mxgraph.azure.user;" parent="1" vertex="1">
          <mxGeometry x="690" y="224" width="47.5" height="50" as="geometry" />
        </mxCell>
        <mxCell id="UNos-CsjaKPpaQYKpEou-8" value="&lt;font style=&quot;font-size: 20px;&quot;&gt;Admin&lt;/font&gt;" style="text;html=1;align=center;verticalAlign=middle;resizable=0;points=[];autosize=1;strokeColor=none;fillColor=none;" parent="1" vertex="1">
          <mxGeometry x="128" y="930" width="80" height="40" as="geometry" />
        </mxCell>
        <mxCell id="UNos-CsjaKPpaQYKpEou-10" value="&lt;p align=&quot;center&quot; class=&quot;MsoNormal&quot;&gt;Modify Customer&lt;br/&gt;Profile&lt;/p&gt;" style="rounded=0;whiteSpace=wrap;html=1;" parent="1" vertex="1">
          <mxGeometry x="360" y="150" width="120" height="60" as="geometry" />
        </mxCell>
        <mxCell id="UNos-CsjaKPpaQYKpEou-11" value="&lt;p align=&quot;center&quot; class=&quot;MsoNormal&quot;&gt;Browse/View available&lt;br/&gt;Cars&lt;/p&gt;" style="rounded=0;whiteSpace=wrap;html=1;" parent="1" vertex="1">
          <mxGeometry x="360" y="240" width="120" height="60" as="geometry" />
        </mxCell>
        <mxCell id="UNos-CsjaKPpaQYKpEou-12" value="&lt;p align=&quot;center&quot; class=&quot;MsoNormal&quot;&gt;Book &amp;nbsp;Car Rentals&lt;/p&gt;" style="rounded=0;whiteSpace=wrap;html=1;" parent="1" vertex="1">
          <mxGeometry x="360" y="330" width="120" height="60" as="geometry" />
        </mxCell>
        <mxCell id="UNos-CsjaKPpaQYKpEou-13" value="&lt;p align=&quot;center&quot; class=&quot;MsoNormal&quot;&gt;Modify Car Rentals&lt;/p&gt;" style="rounded=0;whiteSpace=wrap;html=1;" parent="1" vertex="1">
          <mxGeometry x="360" y="420" width="120" height="60" as="geometry" />
        </mxCell>
        <mxCell id="UNos-CsjaKPpaQYKpEou-14" value="&lt;p align=&quot;center&quot; class=&quot;MsoNormal&quot;&gt;Process Car Rentals&lt;br/&gt;Returns&lt;/p&gt;" style="rounded=0;whiteSpace=wrap;html=1;" parent="1" vertex="1">
          <mxGeometry x="360" y="520" width="120" height="60" as="geometry" />
        </mxCell>
        <mxCell id="UNos-CsjaKPpaQYKpEou-15" value="&lt;p align=&quot;center&quot; class=&quot;MsoNormal&quot;&gt;Check Vehicle Status&lt;/p&gt;" style="rounded=0;whiteSpace=wrap;html=1;" parent="1" vertex="1">
          <mxGeometry x="360" y="600" width="120" height="60" as="geometry" />
        </mxCell>
        <mxCell id="UNos-CsjaKPpaQYKpEou-16" value="&lt;p align=&quot;center&quot; class=&quot;MsoNormal&quot;&gt;Add Profile and&lt;br/&gt;assign roles&lt;/p&gt;" style="rounded=0;whiteSpace=wrap;html=1;" parent="1" vertex="1">
          <mxGeometry x="360" y="800" width="120" height="60" as="geometry" />
        </mxCell>
        <mxCell id="UNos-CsjaKPpaQYKpEou-17" value="&lt;p align=&quot;center&quot; class=&quot;MsoNormal&quot;&gt;User Authentication&lt;/p&gt;" style="rounded=0;whiteSpace=wrap;html=1;" parent="1" vertex="1">
          <mxGeometry x="360" y="710" width="120" height="60" as="geometry" />
        </mxCell>
        <mxCell id="UNos-CsjaKPpaQYKpEou-18" value="&lt;p align=&quot;center&quot; class=&quot;MsoNormal&quot;&gt;Add, Modify, Delete Car&lt;br/&gt;Inventory&lt;/p&gt;" style="rounded=0;whiteSpace=wrap;html=1;" parent="1" vertex="1">
          <mxGeometry x="360" y="900" width="120" height="60" as="geometry" />
        </mxCell>
        <mxCell id="UNos-CsjaKPpaQYKpEou-38" style="edgeStyle=orthogonalEdgeStyle;rounded=0;orthogonalLoop=1;jettySize=auto;html=1;entryX=-0.012;entryY=0.617;entryDx=0;entryDy=0;entryPerimeter=0;fontColor=light-dark(#3200FF,#EDEDED);strokeColor=light-dark(#3200ff, #ededed);" parent="1" source="UNos-CsjaKPpaQYKpEou-3" target="UNos-CsjaKPpaQYKpEou-16" edge="1">
          <mxGeometry relative="1" as="geometry" />
        </mxCell>
        <mxCell id="kHndqxakwdEVO61bLLsD-1" value="&lt;font style=&quot;font-size: 20px;&quot;&gt;Customer&lt;/font&gt;" style="text;html=1;align=center;verticalAlign=middle;resizable=0;points=[];autosize=1;strokeColor=none;fillColor=none;" parent="1" vertex="1">
          <mxGeometry x="658.75" y="280" width="110" height="40" as="geometry" />
        </mxCell>
        <mxCell id="kHndqxakwdEVO61bLLsD-3" value="&lt;font style=&quot;font-size: 20px;&quot;&gt;User Context Diagram&lt;/font&gt;" style="text;html=1;align=center;verticalAlign=middle;resizable=0;points=[];autosize=1;strokeColor=none;fillColor=none;" parent="1" vertex="1">
          <mxGeometry x="38" y="20" width="220" height="40" as="geometry" />
        </mxCell>
        <mxCell id="kHndqxakwdEVO61bLLsD-4" value="&lt;p align=&quot;center&quot; class=&quot;MsoNormal&quot;&gt;Generate Reports&lt;/p&gt;" style="rounded=0;whiteSpace=wrap;html=1;" parent="1" vertex="1">
          <mxGeometry x="360" y="980" width="120" height="60" as="geometry" />
        </mxCell>
        <mxCell id="kHndqxakwdEVO61bLLsD-5" style="edgeStyle=orthogonalEdgeStyle;rounded=0;orthogonalLoop=1;jettySize=auto;html=1;entryX=0;entryY=0.5;entryDx=0;entryDy=0;strokeColor=#3200FF;" parent="1" source="UNos-CsjaKPpaQYKpEou-3" target="kHndqxakwdEVO61bLLsD-4" edge="1">
          <mxGeometry relative="1" as="geometry">
            <mxPoint x="220" y="870" as="sourcePoint" />
            <mxPoint x="370" y="940" as="targetPoint" />
          </mxGeometry>
        </mxCell>
        <mxCell id="4A_q3F_WTV_gnmEse8YE-13" style="edgeStyle=orthogonalEdgeStyle;rounded=0;orthogonalLoop=1;jettySize=auto;html=1;" edge="1" parent="1" source="4A_q3F_WTV_gnmEse8YE-1" target="UNos-CsjaKPpaQYKpEou-4">
          <mxGeometry relative="1" as="geometry" />
        </mxCell>
        <mxCell id="4A_q3F_WTV_gnmEse8YE-1" value="&lt;p align=&quot;center&quot; class=&quot;MsoNormal&quot;&gt;Track Rental&amp;nbsp;&lt;/p&gt;&lt;p align=&quot;center&quot; class=&quot;MsoNormal&quot;&gt;History&lt;/p&gt;" style="rounded=0;whiteSpace=wrap;html=1;" vertex="1" parent="1">
          <mxGeometry x="365" y="-20" width="120" height="60" as="geometry" />
        </mxCell>
        <mxCell id="4A_q3F_WTV_gnmEse8YE-14" style="edgeStyle=orthogonalEdgeStyle;rounded=0;orthogonalLoop=1;jettySize=auto;html=1;" edge="1" parent="1" source="4A_q3F_WTV_gnmEse8YE-1">
          <mxGeometry relative="1" as="geometry">
            <mxPoint x="170" y="210" as="targetPoint" />
          </mxGeometry>
        </mxCell>
      </root>
    </mxGraphModel>
  </diagram>
</mxfile>
